<svg width="35" height="35" viewBox="0 0 35 35" fill="none" xmlns="http://www.w3.org/2000/svg">
<circle cx="17.5" cy="17.5" r="16.5" stroke="#8E8E8E" stroke-width="2"/>
<path d="M16.1836 22.1953C16.1992 21.2656 16.3047 20.5312 16.5 19.9922C16.6953 19.4531 17.0938 18.8555 17.6953 18.1992L19.2305 16.6172C19.8867 15.875 20.2148 15.0781 20.2148 14.2266C20.2148 13.4062 20 12.7656 19.5703 12.3047C19.1406 11.8359 18.5156 11.6016 17.6953 11.6016C16.8984 11.6016 16.2578 11.8125 15.7734 12.2344C15.2891 12.6562 15.0469 13.2227 15.0469 13.9336H12.8789C12.8945 12.668 13.3438 11.6484 14.2266 10.875C15.1172 10.0938 16.2734 9.70312 17.6953 9.70312C19.1719 9.70312 20.3203 10.1016 21.1406 10.8984C21.9688 11.6875 22.3828 12.7734 22.3828 14.1562C22.3828 15.5234 21.75 16.8711 20.4844 18.1992L19.207 19.4648C18.6367 20.0977 18.3516 21.0078 18.3516 22.1953H16.1836ZM16.0898 25.9102C16.0898 25.5586 16.1953 25.2656 16.4062 25.0312C16.625 24.7891 16.9453 24.668 17.3672 24.668C17.7891 24.668 18.1094 24.7891 18.3281 25.0312C18.5469 25.2656 18.6562 25.5586 18.6562 25.9102C18.6562 26.2617 18.5469 26.5547 18.3281 26.7891C18.1094 27.0156 17.7891 27.1289 17.3672 27.1289C16.9453 27.1289 16.625 27.0156 16.4062 26.7891C16.1953 26.5547 16.0898 26.2617 16.0898 25.9102Z" fill="#8E8E8E"/>
</svg>
