<svg width="35" height="37" viewBox="0 0 35 37" fill="none" xmlns="http://www.w3.org/2000/svg">
<path d="M13.5 20.5C12.5 21.5 11.1 24.1 13.5 26.5" stroke="#8E8E8E" stroke-width="2" stroke-linecap="round" stroke-linejoin="round"/>
<path d="M10 18.5C7.73613 20.3333 4.56671 25.1 10 29.5" stroke="#8E8E8E" stroke-width="2" stroke-linecap="round" stroke-linejoin="round"/>
<path d="M5 14.5C2.73613 17.6667 -0.43329 25.9 5 33.5" stroke="#8E8E8E" stroke-width="2" stroke-linecap="round" stroke-linejoin="round"/>
<path d="M19.9999 1C20.3332 2.16667 20.7999 5 19.9999 7C19.1999 9 17.6666 11.1667 16.9999 12C16.3332 13.1667 15.4999 15.5 17.4999 15.5C19.4999 15.5 19.9999 17.1667 19.9999 18L19.5 20C19.5 20.5 20 21.5 22 21.5C24 21.5 23.8333 23.5 23.5 24.5C22 24.8333 19.5 26 21.5 28C24 30.5 19.5 31.5 24 31.5C28.5 31.5 31.5 30.5 33.5 36" stroke="#8E8E8E" stroke-width="2" stroke-linecap="round" stroke-linejoin="round"/>
</svg>
